<svg width="41" height="36" viewBox="0 0 41 36" fill="none" xmlns="http://www.w3.org/2000/svg">
<path d="M6.86542 23V5.94586H13.6937C14.9484 5.94586 15.9948 6.13183 16.8331 6.50378C17.6714 6.87573 18.3015 7.39202 18.7234 8.05264C19.1453 8.70772 19.3563 9.46272 19.3563 10.3176C19.3563 10.9838 19.223 11.5695 18.9565 12.0747C18.6901 12.5743 18.3237 12.9851 17.8574 13.3071C17.3966 13.6236 16.8692 13.8484 16.2752 13.9816V14.1482C16.9247 14.1759 17.5326 14.3591 18.0988 14.6978C18.6706 15.0364 19.1342 15.5111 19.4895 16.1217C19.8448 16.7268 20.0224 17.4485 20.0224 18.2868C20.0224 19.1917 19.7976 19.9994 19.3479 20.71C18.9038 21.4151 18.246 21.973 17.3744 22.3838C16.5028 22.7946 15.4286 23 14.1517 23H6.86542ZM10.4711 20.0522H13.4106C14.4154 20.0522 15.1482 19.8606 15.609 19.4776C16.0698 19.089 16.3002 18.5727 16.3002 17.9287C16.3002 17.4568 16.1864 17.0405 15.9587 16.6796C15.7311 16.3188 15.4064 16.0357 14.9845 15.8303C14.5681 15.6249 14.0712 15.5222 13.4939 15.5222H10.4711V20.0522ZM10.4711 13.0823H13.1441C13.6382 13.0823 14.0768 12.9962 14.4598 12.8241C14.8485 12.6465 15.1538 12.3967 15.3758 12.0747C15.6035 11.7527 15.7173 11.3669 15.7173 10.9172C15.7173 10.301 15.498 9.80414 15.0594 9.42663C14.6264 9.04913 14.0102 8.86038 13.2108 8.86038H10.4711V13.0823Z" fill="#22643B"/>
<path d="M21.1229 31.1121V16.4702H24.2186V28.5598H30.4958V31.1121H21.1229Z" fill="#138A36"/>
<path d="M36 18C36 27.1517 28.2894 34.6542 18.6729 34.6542C9.05642 34.6542 1.34579 27.1517 1.34579 18C1.34579 8.84826 9.05642 1.34579 18.6729 1.34579C28.2894 1.34579 36 8.84826 36 18Z" stroke="url(#paint0_linear_52_10)" stroke-width="2.69159"/>
<defs>
<linearGradient id="paint0_linear_52_10" x1="29.6075" y1="29.271" x2="1.61627e-07" y2="18.1682" gradientUnits="userSpaceOnUse">
<stop stop-color="#22643B"/>
<stop offset="0.244792" stop-color="#138936"/>
<stop offset="0.395733" stop-color="white"/>
<stop offset="0.395833" stop-color="#1C7339"/>
<stop offset="0.515625" stop-color="#1A7938"/>
<stop offset="1" stop-color="#138A36"/>
</linearGradient>
</defs>
</svg>
